<svg xmlns="http://www.w3.org/2000/svg" viewBox="0 0 48 48" fill="none" role="img" aria-label="Yatrify favicon">
  <defs>
    <linearGradient id="bg" x1="6" y1="6" x2="42" y2="42" gradientUnits="userSpaceOnUse">
      <stop offset="0" stop-color="#a855f7" />
      <stop offset="0.55" stop-color="#8b5cf6" />
      <stop offset="1" stop-color="#7c3aed" />
    </linearGradient>
    <radialGradient id="sheen" cx="0" cy="0" r="1" gradientUnits="userSpaceOnUse" gradientTransform="translate(16 14) rotate(45) scale(22 22)">
      <stop offset="0" stop-color="#ffffff" stop-opacity="0.32" />
      <stop offset="0.45" stop-color="#ffffff" stop-opacity="0.08" />
      <stop offset="1" stop-color="#ffffff" stop-opacity="0" />
    </radialGradient>
  </defs>

  <rect x="4" y="4" width="40" height="40" rx="12" fill="url(#bg)" />
  <rect x="4" y="4" width="40" height="40" rx="12" fill="url(#sheen)" />
  <circle cx="17" cy="15" r="7.5" fill="#ffffff" opacity="0.08" />

  <g transform="translate(7 7) scale(1.08)">
    <path
      d="M17.8 19.2 16 11l3.5-3.5C21 6 21.5 4 21 3c-1-.5-3 0-4.5 1.5L13 8 4.8 6.2c-.5-.1-.9.1-1.1.5l-.3.5c-.2.5-.1 1 .3 1.3L9 12l-2 3H4l-1 1 3 2 2 3 1-1v-3l3-2 3.5 5.3c.3.4.8.5 1.3.3l.5-.2c.4-.3.6-.7.5-1.2Z"
      stroke="#ffffff"
      stroke-width="2.2"
      stroke-linecap="round"
      stroke-linejoin="round"
      fill="none"
      vector-effect="non-scaling-stroke"
    />
  </g>
</svg>
