<svg xmlns="http://www.w3.org/2000/svg" viewBox="0 0 48 48" fill="none" role="img" aria-label="Yatrify favicon">
  <defs>
    <linearGradient id="bg" x1="8" y1="6" x2="40" y2="42" gradientUnits="userSpaceOnUse">
      <stop offset="0" stop-color="#8b5cf6" />
      <stop offset="0.55" stop-color="#7c3aed" />
      <stop offset="1" stop-color="#6d28d9" />
    </linearGradient>
    <filter id="shadow" x="-20%" y="-20%" width="140%" height="140%">
      <feDropShadow dx="0" dy="3" stdDeviation="4" flood-color="#4c1d95" flood-opacity="0.32" />
    </filter>
  </defs>
  <rect x="4" y="4" width="40" height="40" rx="12" fill="url(#bg)" filter="url(#shadow)" />
  <circle cx="17" cy="15" r="8" fill="#ffffff" opacity="0.08" />
  <g transform="translate(6 6) scale(1.5)">
    <path
      d="M17.8 19.2 16 11l3.5-3.5C21 6 21.5 4 21 3c-1-.5-3 0-4.5 1.5L13 8 4.8 6.2c-.5-.1-.9.1-1.1.5l-.3.5c-.2.5-.1 1 .3 1.3L9 12l-2 3H4l-1 1 3 2 2 3 1-1v-3l3-2 3.5 5.3c.3.4.8.5 1.3.3l.5-.2c.4-.3.6-.7.5-1.2Z"
      stroke="#ffffff"
      stroke-width="1.8"
      stroke-linecap="round"
      stroke-linejoin="round"
      vector-effect="non-scaling-stroke"
    />
  </g>
</svg>
